# xmcd
#
# Track frame offsets: 
#        150
#        15051
#        25394
#        36347
#        48549
#        59701
#        72710
#        83445
#        93101
#        106048
#        115535
#        126828
#        139957
#        154474
#        164789
#        183141
#        193654
#        207038
#        217962
#        228863
#        241192
#        262407
#        283452
#        294785
#        312752
#        329246
#        338459
#
# Disc length: 4671 seconds
#
# Revision: 0
# Processed by: cddbd v1.5.1PL0 Copyright (c) Steve Scherf et al.
# Submitted via: ExactAudioCopy v0.95a5
#
DISCID=8c123d1b
DTITLE=Various Artist - Shuckin' Stuff: Rare Blues From Ace Records
DYEAR=2002
DGENRE=Blues
TTITLE0=Jesse Allen - Goodbye Blues
TTITLE1=Dave Dixon - I'm Not Satisfied (alternate take)
TTITLE2=Earl King - Those Lonely Lonely Nights (alternate take)
TTITLE3=Mercy Baby - Mercy's Blues
TTITLE4=Al Collins - I Got The Blues For You
TTITLE5=Bobby Marchan - Give A Helping Hand (alternate take)
TTITLE6=Frankie Lee Sims - What Will Lucy Do
TTITLE7=Joe Hill Louis - 4th And Beale
TTITLE8=Al Collins - Shuckin' Stuff
TTITLE9=Earl King - Baby You Can Get Your Gun
TTITLE10=Edgar Blanchard - Let's Get It
TTITLE11=Lightnin' Slim - Bad Feeling Blues (alternate take)
TTITLE12=Fred McDowell - Don't Say A Mumblin' Word
TTITLE13=Schoolboy Cleve - My Baby Done Gone
TTITLE14=John Littlejohn - I Got My Nose Open
TTITLE15=Albert Scott - I Feel So Good
TTITLE16=Big Boy Crudup - Mean Old World
TTITLE17=Dave Dixon - Feeling So Low (alternate take)
TTITLE18=Earl King - My Love Is Strong
TTITLE19=Lightnin' Slim - Lightnin' Slim Boogie (alternate take)
TTITLE20=John Littlejohn - She's 19 Years Old
TTITLE21=Bad Smitty - Smokestack Lightning
TTITLE22=Joe Hill Louis - Sweetest Woman I Ever Know
TTITLE23=Boby Marchan - Pity Poor Me (alternate take)
TTITLE24=Mercy Baby - Silly Dilly Woman
TTITLE25=Albert Scott - I'm So Glad You're Mine
TTITLE26=Frankie Lee Sims - Hey Little Girl
EXTD=
EXTT0=
EXTT1=
EXTT2=
EXTT3=
EXTT4=
EXTT5=
EXTT6=
EXTT7=
EXTT8=
EXTT9=
EXTT10=
EXTT11=
EXTT12=
EXTT13=
EXTT14=
EXTT15=
EXTT16=
EXTT17=
EXTT18=
EXTT19=
EXTT20=
EXTT21=
EXTT22=
EXTT23=
EXTT24=
EXTT25=
EXTT26=
PLAYORDER=
